# xmcd
#
# Track frame offsets:
#	150
#	18054
#	42536
#	61277
#	75862
#	99804
#	116237
#	136584
#	151041
#	169291
#	189065
#	207331
#	217313
#	235168
#	254009
#
# Disc length: 3625 seconds
#
# Revision: 1
# Processed by: cddbd v1.5.2PL0 Copyright (c) Steve Scherf et al.
# Submitted via: EZCDAudioConverter 6.0.9.1
#
DISCID=bf0e270f
DTITLE=Stokley - Introducing Stokley
DYEAR=2017
DGENRE=R&B
TTITLE0=Level
TTITLE1=Organics
TTITLE2=Think About U
TTITLE3=Cross The Line
TTITLE4=Art In Motion
TTITLE5=Hold My Breath
TTITLE6=Victoria
TTITLE7=U& I
TTITLE8=Way Up
TTITLE9=Be With U
TTITLE10=Forecast
TTITLE11=Victoria
TTITLE12=We/Me
TTITLE13=Now
TTITLE14=Wheels Up
EXTD=
EXTT0=
EXTT1=
EXTT2=
EXTT3=
EXTT4=
EXTT5=
EXTT6=
EXTT7=
EXTT8=
EXTT9=
EXTT10=
EXTT11=
EXTT12=
EXTT13=
EXTT14=
PLAYORDER=
